<?xml version="1.0" encoding="UTF-8"?>
<svg width="300" height="105px" viewBox="0 0 732 98" version="1.1" xmlns="http://www.w3.org/2000/svg" xmlns:xlink="http://www.w3.org/1999/xlink">
    <!-- Generator: Sketch 58 (84663) - https://sketch.com -->
    <title>kilowott masterfile 1 eps rgbBlack</title>
    <desc>Created with Sketch.</desc>
    <g id="Logo" stroke="none" stroke-width="1" fill="none" fill-rule="evenodd">
        <path d="M37.017,64.202 L30.134,72.029 L30.134,94.977 L0,94.977 L0,2.122 L30.134,2.122 L30.134,35.815 L60.008,2.122 L93.389,2.122 L57.021,42.978 L95.208,94.977 L59.748,94.977 L37.017,64.202 Z M673.861,26.397 L643.208,26.397 L643.208,94.977 L612.554,94.977 L612.554,26.397 L585.926,26.397 L585.926,2.122 L731.142,2.122 L731.142,26.397 L704.515,26.397 L704.515,94.977 L673.861,94.977 L673.861,26.397 Z M531.634,97.099 C521.849,97.099 513.059,95.021 505.266,90.864 C497.473,86.708 491.368,80.938 486.952,73.554 C482.536,66.17 480.327,57.835 480.327,48.55 C480.327,39.264 482.536,30.929 486.952,23.545 C491.368,16.161 497.473,10.391 505.266,6.234 C513.059,2.078 521.849,0 531.634,0 C541.419,0 550.208,2.078 558,6.234 C565.794,10.391 571.899,16.161 576.315,23.545 C580.731,30.929 582.94,39.264 582.94,48.55 C582.94,57.835 580.731,66.17 576.315,73.554 C571.899,80.938 565.794,86.708 558,90.864 C550.208,95.021 541.419,97.099 531.634,97.099 Z M531.634,71.763 C535.443,71.763 538.886,70.813 541.959,68.911 C545.033,67.01 547.479,64.312 549.298,60.819 C551.117,57.326 552.026,53.236 552.026,48.55 C552.026,43.862 551.117,39.772 549.298,36.279 C547.479,32.786 545.033,30.089 541.959,28.188 C538.886,26.286 535.443,25.336 531.634,25.336 C527.823,25.336 524.381,26.286 521.307,28.188 C518.233,30.089 515.787,32.786 513.968,36.279 C512.15,39.772 511.241,43.862 511.241,48.55 C511.241,53.236 512.15,57.326 513.968,60.819 C515.787,64.312 518.233,67.01 521.307,68.911 C524.381,70.813 527.823,71.763 531.634,71.763 Z M478.509,2.122 L449.414,94.977 L416.552,94.977 L401.875,45.366 L386.418,94.977 L353.557,94.977 L324.461,2.122 L356.024,2.122 L371.87,54.916 L388.626,2.122 L416.813,2.122 L432.658,55.58 L449.414,2.122 L478.509,2.122 Z M271.337,97.099 C261.552,97.099 252.763,95.021 244.969,90.864 C237.176,86.708 231.071,80.938 226.655,73.554 C222.239,66.17 220.031,57.835 220.031,48.55 C220.031,39.264 222.239,30.929 226.655,23.545 C231.071,16.161 237.176,10.391 244.969,6.234 C252.763,2.078 261.552,0 271.337,0 C281.122,0 289.911,2.078 297.704,6.234 C305.498,10.391 311.602,16.161 316.018,23.545 C320.435,30.929 322.643,39.264 322.643,48.55 C322.643,57.835 320.435,66.17 316.018,73.554 C311.602,80.938 305.498,86.708 297.704,90.864 C289.911,95.021 281.122,97.099 271.337,97.099 Z M271.337,71.763 C275.147,71.763 278.589,70.813 281.663,68.911 C284.738,67.01 287.184,64.312 289.002,60.819 C290.821,57.326 291.73,53.236 291.73,48.55 C291.73,43.862 290.821,39.772 289.002,36.279 C287.184,32.786 284.738,30.089 281.663,28.188 C278.589,26.286 275.147,25.336 271.337,25.336 C267.527,25.336 264.085,26.286 261.011,28.188 C257.936,30.089 255.491,32.786 253.672,36.279 C251.853,39.772 250.944,43.862 250.944,48.55 C250.944,53.236 251.853,57.326 253.672,60.819 C255.491,64.312 257.936,67.01 261.011,68.911 C264.085,70.813 267.527,71.763 271.337,71.763 Z M154.363,2.122 L175.479,2.122 L175.479,70.701 L216.524,70.701 L216.524,94.977 L146.714,94.977 C140.467,72.527 150.869,51.451 150.869,51.451 L141.829,54.657 C144.303,33.862 165.046,14.621 165.046,14.621 L145.635,18.508 C147.546,12.421 150.96,6.741 154.363,2.122 Z M144.321,94.977 L99.364,94.977 L99.364,2.122 L128.829,2.122 C117.766,20.145 118.993,38.332 118.993,38.332 C121.752,36.68 128.699,34.833 128.699,34.833 C118.803,51.159 124.036,71.857 124.036,71.857 C124.702,71.08 130.506,66.221 130.506,66.221 C131.955,79.537 139.693,89.873 144.321,94.977 L144.321,94.977 Z" id="kilowott-masterfile-1-eps-rgb" fill="#1B1614"></path>
    </g>
</svg>